<?xml version="1.0" encoding="UTF-8"?>
<svg width="546px" height="423px" viewBox="0 0 546 423" version="1.1" xmlns="http://www.w3.org/2000/svg" xmlns:xlink="http://www.w3.org/1999/xlink">
    <!-- Generator: Sketch 63.1 (92452) - https://sketch.com -->
    <title>About-HeroIllustration@3x</title>
    <desc>Created with Sketch.</desc>
    <g id="About" stroke="none" stroke-width="1" fill="none" fill-rule="evenodd">
        <g id="Quolum---About---V.1" transform="translate(-760.000000, -168.000000)">
            <g id="About-HeroIllustration" transform="translate(761.000000, 168.000000)">
                <g id="Group-34" transform="translate(0.000000, 48.000000)" stroke-width="2">
                    <g id="Group-25" transform="translate(0.000000, 103.000000)">
                        <rect id="Rectangle" stroke-opacity="0.2" stroke="#2C2E3A" x="-5.5456994e-13" y="0.986766679" width="40" height="169.208628" rx="20"></rect>
                        <rect id="Rectangle" stroke="#E02F46" x="0" y="57" width="40" height="64.9761131" rx="20"></rect>
                    </g>
                    <g id="Group-24" transform="translate(101.000000, 0.000000)">
                        <rect id="Rectangle" stroke-opacity="0.2" stroke="#2C2E3A" x="0" y="0" width="40" height="303.221861" rx="20"></rect>
                        <rect id="Rectangle" stroke="#E02F46" x="0" y="86" width="40" height="180.03798" rx="20"></rect>
                    </g>
                    <g id="Group-23" transform="translate(202.000000, 78.000000)">
                        <rect id="Rectangle" stroke-opacity="0.2" stroke="#2C2E3A" x="0" y="2.53066893e-12" width="40" height="295.099847" rx="20"></rect>
                        <rect id="Rectangle" stroke="#E02F46" x="0" y="1.8189894e-12" width="40" height="63" rx="20"></rect>
                    </g>
                    <g id="Group-22" transform="translate(303.000000, 12.000000)">
                        <rect id="Rectangle" stroke-opacity="0.2" stroke="#2C2E3A" x="0" y="4.29736233e-13" width="40" height="324.880566" rx="20"></rect>
                        <rect id="Rectangle" stroke="#E02F46" x="0" y="122.358441" width="40" height="129.5" rx="20"></rect>
                    </g>
                    <g id="Group-21" transform="translate(403.000000, 94.000000)">
                        <rect id="Rectangle" stroke-opacity="0.2" stroke="#2C2E3A" x="0" y="0" width="40" height="159.732945" rx="20"></rect>
                        <rect id="Rectangle" stroke="#E02F46" x="0" y="106" width="40" height="54.1467609" rx="20"></rect>
                    </g>
                    <g id="Group-19" transform="translate(504.000000, 132.000000)">
                        <rect id="Rectangle" stroke-opacity="0.2" stroke="#2C2E3A" x="-5.5456994e-13" y="0.352809101" width="40" height="193.57467" rx="20"></rect>
                        <rect id="Rectangle" stroke="#E02F46" x="0" y="0.787460491" width="40" height="49.5" rx="20"></rect>
                    </g>
                </g>
                <circle id="Oval" fill="#E02F46" cx="508" cy="3" r="3"></circle>
                <circle id="Oval" fill="#E02F46" cx="468" cy="69" r="3"></circle>
                <circle id="Oval" fill="#E02F46" cx="495" cy="132" r="3"></circle>
                <circle id="Oval" fill="#E02F46" cx="378" cy="341" r="3"></circle>
                <circle id="Oval" fill="#E02F46" cx="466" cy="401" r="3"></circle>
                <circle id="Oval" fill="#E02F46" cx="266" cy="90" r="3"></circle>
                <path d="M20.5,241.5 C45.1953125,240.396484 86.0058594,236.896484 121,221.866472 C155.994141,206.83646 189.77155,156.099063 222,157 C254.22845,157.900937 299.125,222.521484 323,243 C346.875,263.478516 387.365234,273 423,273 C458.634766,273 505.640625,220.064453 524,204" id="Path-2" stroke="#2C2E3A" stroke-width="2"></path>
                <circle id="Oval" fill="#E02F46" cx="20.5" cy="241.5" r="4"></circle>
                <circle id="Oval" fill="#E02F46" cx="121" cy="221" r="4"></circle>
                <circle id="Oval" fill="#E02F46" cx="222" cy="157" r="4"></circle>
                <circle id="Oval" fill="#E02F46" cx="323" cy="243" r="4"></circle>
                <circle id="Oval" fill="#E02F46" cx="423" cy="273" r="4"></circle>
                <circle id="Oval" fill="#E02F46" cx="524" cy="204" r="4"></circle>
            </g>
        </g>
    </g>
</svg>