<svg xmlns="http://www.w3.org/2000/svg" xmlns:xlink="http://www.w3.org/1999/xlink" width="100" height="100" viewBox="0 0 100 100">
  <defs>
    <style>
      .a {
        fill: none;
      }

      .b {
        clip-path: url(#a);
      }

      .c {
        fill: #2B5468;
      }

      .d {
        fill: #1D4354;
      }
    </style>
    <clipPath id="a">
      <rect class="a" width="100" height="100"/>
    </clipPath>
  </defs>
  <title>19-0724_B2B patterns</title>
  <g class="b">
    <g>
      <rect class="c" x="-29.08" y="-54.48" width="729.27" height="479.54"/>
      <g>
        <g>
          <rect class="d" x="-25" y="-0.14" width="730.36" height="0.6"/>
          <rect class="d" x="-25" y="24.85" width="731.43" height="0.6"/>
          <rect class="d" x="-25" y="49.85" width="731.43" height="0.6"/>
          <rect class="d" x="-25" y="74.84" width="731.43" height="0.6"/>
          <rect class="d" x="-25" y="99.84" width="731.43" height="0.6"/>
          <rect class="d" x="-25" y="-0.14" width="731.43" height="0.6"/>
          <rect class="d" x="-0.15" y="-50.11" width="0.6" height="474.7"/>
          <rect class="d" x="24.85" y="-50.11" width="0.6" height="474.7"/>
          <rect class="d" x="49.85" y="-50.11" width="0.6" height="474.7"/>
          <rect class="d" x="74.85" y="-50.11" width="0.6" height="474.7"/>
          <rect class="d" x="99.86" y="-50.11" width="0.6" height="474.7"/>
          <g>
            <polygon class="d" points="24.89 0.39 0 -24.62 -24.9 0.39 -25.11 0.18 0 -25.04 25.11 0.18 24.89 0.39"/>
            <polygon class="d" points="74.9 0.39 50 -24.62 25.11 0.39 24.89 0.18 50 -25.04 75.11 0.18 74.9 0.39"/>
            <polygon class="d" points="124.9 0.39 100 -24.62 75.11 0.39 74.9 0.18 100 -25.04 125.11 0.18 124.9 0.39"/>
          </g>
          <g>
            <polygon class="d" points="24.89 25.23 0 0.22 -24.9 25.23 -25.11 25.02 0 -0.21 25.11 25.02 24.89 25.23"/>
            <polygon class="d" points="74.9 25.23 50 0.22 25.11 25.23 24.89 25.02 50 -0.21 75.11 25.02 74.9 25.23"/>
            <polygon class="d" points="124.9 25.23 100 0.22 75.11 25.23 74.9 25.02 100 -0.21 125.11 25.02 124.9 25.23"/>
          </g>
          <g>
            <polygon class="d" points="24.89 50.06 0 25.05 -24.9 50.06 -25.11 49.85 0 24.63 25.11 49.85 24.89 50.06"/>
            <polygon class="d" points="74.9 50.06 50 25.05 25.11 50.06 24.89 49.85 50 24.63 75.11 49.85 74.9 50.06"/>
            <polygon class="d" points="124.9 50.06 100 25.05 75.11 50.06 74.9 49.85 100 24.63 125.11 49.85 124.9 50.06"/>
          </g>
          <g>
            <polygon class="d" points="24.89 74.96 0 49.95 -24.9 74.96 -25.11 74.75 0 49.52 25.11 74.75 24.89 74.96"/>
            <polygon class="d" points="74.9 74.96 50 49.95 25.11 74.96 24.89 74.75 50 49.52 75.11 74.75 74.9 74.96"/>
            <polygon class="d" points="124.9 74.96 100 49.95 75.11 74.96 74.9 74.75 100 49.52 125.11 74.75 124.9 74.96"/>
          </g>
          <g>
            <polygon class="d" points="24.89 100.22 0 75.2 -24.9 100.22 -25.11 100 0 74.78 25.11 100 24.89 100.22"/>
            <polygon class="d" points="74.9 100.22 50 75.2 25.11 100.22 24.89 100 50 74.78 75.11 100 74.9 100.22"/>
            <polygon class="d" points="124.9 100.22 100 75.2 75.11 100.22 74.9 100 100 74.78 125.11 100 124.9 100.22"/>
          </g>
          <g>
            <polygon class="d" points="24.89 125.11 0 100.1 -24.9 125.11 -25.11 124.9 0 99.68 25.11 124.9 24.89 125.11"/>
            <polygon class="d" points="74.9 125.11 50 100.1 25.11 125.11 24.89 124.9 50 99.68 75.11 124.9 74.9 125.11"/>
            <polygon class="d" points="124.9 125.11 100 100.1 75.11 125.11 74.9 124.9 100 99.68 125.11 124.9 124.9 125.11"/>
          </g>
        </g>
        <g>
          <ellipse class="d" cx="25" cy="0.01" rx="1.41" ry="1.42"/>
          <ellipse class="d" cy="0.01" rx="1.41" ry="1.42"/>
          <ellipse class="d" cx="50" cy="0.01" rx="1.41" ry="1.42"/>
          <ellipse class="d" cx="75" cy="0.01" rx="1.41" ry="1.42"/>
          <ellipse class="d" cx="100" cy="0.01" rx="1.41" ry="1.42"/>
        </g>
        <g>
          <ellipse class="d" cx="25" cy="25" rx="1.41" ry="1.42"/>
          <ellipse class="d" cy="25" rx="1.41" ry="1.42"/>
          <ellipse class="d" cx="50" cy="25" rx="1.41" ry="1.42"/>
          <ellipse class="d" cx="75" cy="25" rx="1.41" ry="1.42"/>
          <ellipse class="d" cx="100" cy="25" rx="1.41" ry="1.42"/>
        </g>
        <g>
          <ellipse class="d" cx="25" cy="50" rx="1.41" ry="1.42"/>
          <ellipse class="d" cy="50" rx="1.41" ry="1.42"/>
          <ellipse class="d" cx="50" cy="50" rx="1.41" ry="1.42"/>
          <ellipse class="d" cx="75" cy="50" rx="1.41" ry="1.42"/>
          <ellipse class="d" cx="100" cy="50" rx="1.41" ry="1.42"/>
        </g>
        <g>
          <ellipse class="d" cx="25" cy="74.99" rx="1.41" ry="1.42"/>
          <ellipse class="d" cy="74.99" rx="1.41" ry="1.42"/>
          <ellipse class="d" cx="50" cy="74.99" rx="1.41" ry="1.42"/>
          <ellipse class="d" cx="75" cy="74.99" rx="1.41" ry="1.42"/>
          <ellipse class="d" cx="100" cy="74.99" rx="1.41" ry="1.42"/>
        </g>
        <g>
          <ellipse class="d" cx="25" cy="99.99" rx="1.41" ry="1.42"/>
          <ellipse class="d" cy="99.99" rx="1.41" ry="1.42"/>
          <ellipse class="d" cx="50" cy="99.99" rx="1.41" ry="1.42"/>
          <ellipse class="d" cx="75" cy="99.99" rx="1.41" ry="1.42"/>
          <ellipse class="d" cx="100" cy="99.99" rx="1.41" ry="1.42"/>
        </g>
      </g>
    </g>
  </g>
</svg>
